<?xml version="1.0" standalone="no"?>
<!DOCTYPE svg PUBLIC "-//W3C//DTD SVG 20010904//EN"
 "http://www.w3.org/TR/2001/REC-SVG-20010904/DTD/svg10.dtd">
<svg version="1.0" xmlns="http://www.w3.org/2000/svg"
 width="480.000000pt" height="480.000000pt" viewBox="0 0 480.000000 480.000000"
 preserveAspectRatio="xMidYMid meet">

<g transform="translate(0.000000,480.000000) scale(0.100000,-0.100000)"
fill="#000000" stroke="none">
<path d="M2060 4427 c-34 -17 -35 -43 -6 -97 92 -168 115 -232 136 -375 14
-102 34 -566 24 -575 -5 -5 -227 -35 -495 -69 l-485 -60 -76 24 c-95 30 -201
49 -232 41 -14 -3 -28 -15 -31 -26 -7 -22 3 -42 110 -215 38 -60 81 -142 96
-181 40 -102 75 -288 99 -524 24 -243 35 -304 62 -349 24 -38 73 -71 106 -71
30 0 60 65 68 149 6 58 8 61 33 61 63 0 362 22 543 40 108 11 200 20 204 20 4
0 3 -294 -2 -652 -5 -359 -9 -750 -8 -868 2 -327 26 -465 84 -465 35 0 76 84
95 195 49 284 95 1089 95 1667 l0 152 33 5 c145 24 449 46 754 55 198 5 276
11 287 20 25 21 19 72 -14 115 -18 24 -30 52 -30 70 0 108 323 552 461 634 46
28 66 50 74 85 7 25 1 34 -46 80 -57 54 -220 152 -349 207 -98 43 -170 48
-275 22 -84 -22 -374 -67 -655 -101 -91 -12 -180 -24 -199 -27 l-34 -6 6 219
c8 251 20 375 47 487 33 133 24 178 -46 224 -45 30 -169 69 -273 87 -102 18
-129 18 -161 2z m1278 -1117 c56 -25 72 -63 72 -171 0 -126 -57 -374 -112
-484 -24 -47 -82 -111 -120 -131 -15 -8 -57 -21 -93 -29 -71 -17 -517 -75
-572 -75 l-33 0 0 243 c0 134 3 325 7 424 l6 180 256 27 c141 14 270 28 286
30 17 1 82 4 145 4 94 1 123 -2 158 -18z m-1113 -496 c4 -231 3 -420 -1 -424
-5 -5 -166 -27 -359 -49 -192 -23 -366 -43 -386 -46 l-36 -5 -7 113 c-9 152
-42 436 -66 581 -11 65 -18 122 -15 125 6 5 789 118 836 120 l26 1 8 -416z"/>
</g>
</svg>
