<?xml version="1.0" standalone="no"?>
<!DOCTYPE svg PUBLIC "-//W3C//DTD SVG 20010904//EN"
 "http://www.w3.org/TR/2001/REC-SVG-20010904/DTD/svg10.dtd">
<svg version="1.0" xmlns="http://www.w3.org/2000/svg"
 width="480.000000pt" height="480.000000pt" viewBox="0 0 480.000000 480.000000"
 preserveAspectRatio="xMidYMid meet">

<g transform="translate(0.000000,480.000000) scale(0.100000,-0.100000)"
fill="#000000" stroke="none">
<path d="M2763 4360 c-37 -15 -38 -52 -4 -156 29 -88 31 -106 31 -231 0 -75
-5 -176 -11 -224 l-11 -88 -37 -5 c-50 -8 -415 -52 -591 -71 -80 -8 -164 -18
-187 -21 l-43 -5 0 88 c0 48 5 137 10 197 13 129 8 156 -31 201 -60 68 -274
132 -358 106 -37 -11 -41 -15 -41 -44 0 -21 16 -58 47 -107 72 -117 122 -251
151 -411 l9 -46 -91 -7 c-229 -16 -588 -36 -661 -36 -81 0 -149 -13 -160 -30
-18 -29 61 -108 157 -158 47 -24 62 -27 153 -26 73 0 127 7 200 27 93 24 234
48 367 62 66 7 61 19 78 -170 12 -125 31 -186 68 -219 33 -29 69 -14 92 37 17
36 20 66 20 215 0 137 3 172 13 172 8 0 126 13 263 29 306 37 522 56 530 48
10 -9 -24 -138 -72 -277 -48 -138 -53 -174 -26 -189 49 -26 134 84 255 332
l72 148 300 -4 c165 -3 362 -11 438 -18 215 -20 297 6 297 95 0 35 -6 46 -56
94 -34 33 -84 67 -132 90 -75 36 -79 37 -192 36 -94 0 -140 -7 -250 -33 -137
-33 -319 -65 -327 -57 -8 8 68 209 118 313 63 132 64 157 5 211 -101 93 -313
164 -393 132z"/>
<path d="M2103 3200 c-29 -12 -31 -56 -4 -102 26 -43 41 -139 41 -259 l0 -96
-177 -22 c-368 -46 -420 -49 -498 -29 -213 54 -277 18 -191 -106 88 -128 171
-395 210 -677 l7 -46 -83 -7 c-166 -12 -599 -36 -831 -45 -190 -8 -243 -13
-263 -25 -13 -9 -24 -22 -24 -28 0 -24 107 -114 175 -147 106 -53 171 -53 420
-3 225 46 386 69 720 106 299 34 409 44 414 40 10 -9 -67 -217 -114 -309 -199
-391 -552 -701 -990 -870 -175 -68 -226 -116 -155 -145 64 -27 256 13 462 96
361 145 595 329 785 616 71 108 159 286 193 393 12 39 25 73 29 77 3 4 26 -25
50 -65 171 -278 329 -495 581 -797 293 -351 326 -382 449 -421 55 -18 90 -21
216 -21 212 0 655 44 743 73 17 6 37 20 43 31 19 36 -15 54 -221 112 -526 148
-854 305 -1136 543 -197 167 -423 396 -619 628 l-68 79 29 7 c43 11 275 27
569 40 363 16 827 7 1165 -21 151 -13 291 -20 311 -16 47 8 89 47 89 82 0 104
-196 232 -387 252 -99 11 -259 -1 -441 -33 -221 -39 -361 -63 -421 -70 -64 -9
-65 -21 21 175 82 187 125 255 218 347 72 72 80 84 80 118 0 31 -7 45 -40 76
-44 42 -150 106 -246 150 -82 38 -134 37 -264 -1 -101 -30 -242 -57 -433 -83
l-99 -14 7 55 c4 30 13 77 22 105 21 70 11 107 -39 152 -81 74 -246 130 -305
105z m864 -535 c32 -43 -5 -299 -77 -529 -45 -143 -50 -154 -73 -159 -37 -9
-516 -51 -521 -47 -2 3 9 77 25 165 16 88 40 236 54 330 14 93 27 184 30 201
l5 32 133 16 c166 21 200 22 316 16 77 -5 96 -9 108 -25z m-842 -187 c-13
-230 -57 -557 -77 -569 -11 -7 -347 -34 -352 -28 -2 2 -11 83 -20 179 -10 96
-26 242 -38 323 -11 82 -18 150 -16 152 1 2 68 11 148 20 80 8 183 22 230 29
47 8 96 14 109 15 l24 1 -8 -122z"/>
</g>
</svg>
