<?xml version="1.0" standalone="no"?>
<!DOCTYPE svg PUBLIC "-//W3C//DTD SVG 20010904//EN"
 "http://www.w3.org/TR/2001/REC-SVG-20010904/DTD/svg10.dtd">
<svg version="1.0" xmlns="http://www.w3.org/2000/svg"
 width="480.000000pt" height="480.000000pt" viewBox="0 0 480.000000 480.000000"
 preserveAspectRatio="xMidYMid meet">

<g transform="translate(0.000000,480.000000) scale(0.100000,-0.100000)"
fill="#000000" stroke="none">
<path d="M1292 4328 c-22 -22 -12 -68 34 -159 86 -173 103 -301 107 -804 l2
-320 -125 -33 c-69 -18 -234 -54 -367 -81 -133 -27 -246 -52 -252 -56 -45 -27
38 -90 144 -108 77 -13 222 4 446 54 74 16 140 29 148 29 12 0 13 -41 6 -262
-4 -146 -11 -268 -17 -275 -10 -12 -328 -204 -473 -286 -133 -74 -356 -183
-430 -210 -39 -14 -98 -28 -130 -32 -75 -9 -125 -29 -125 -50 0 -40 211 -209
276 -221 42 -8 85 16 214 121 108 88 329 247 533 384 l138 92 -5 -78 c-3 -43
-11 -159 -16 -258 -22 -361 -39 -444 -106 -511 -50 -50 -92 -60 -205 -47 -40
5 -82 7 -91 5 -33 -7 -21 -50 30 -105 86 -93 138 -160 207 -265 37 -57 78
-109 92 -115 31 -14 82 10 116 55 47 62 107 184 129 264 21 76 22 101 26 631
l4 552 94 67 c99 70 218 174 234 204 14 25 3 49 -26 56 -26 7 -99 -24 -216
-92 -42 -24 -80 -44 -83 -44 -7 0 -4 410 4 440 6 22 20 28 134 57 165 43 231
68 273 105 41 36 45 74 12 106 -63 58 -146 55 -346 -10 -35 -11 -66 -18 -69
-15 -8 8 15 384 33 532 19 158 37 241 75 346 34 92 36 124 11 161 -26 39 -62
65 -154 108 -156 72 -257 97 -286 68z"/>
<path d="M3489 4239 c-8 -15 -9 -52 -4 -115 6 -81 4 -102 -15 -159 -31 -92
-113 -249 -236 -448 -58 -94 -108 -186 -111 -204 -5 -30 -3 -33 19 -33 53 0
174 105 390 338 83 90 197 202 253 248 116 97 132 121 110 163 -18 35 -136
126 -240 186 -92 52 -146 60 -166 24z"/>
<path d="M2311 3832 c-19 -35 52 -152 222 -365 90 -113 123 -137 188 -137 87
0 124 57 117 180 -7 131 -82 205 -293 289 -132 53 -217 65 -234 33z"/>
<path d="M3470 3215 c-85 -18 -252 -56 -370 -84 -353 -82 -692 -141 -818 -141
-59 0 -118 -16 -125 -34 -14 -35 85 -79 217 -96 48 -7 96 -10 106 -7 55 14
111 -321 91 -541 -4 -51 -10 -94 -12 -96 -9 -9 -410 -47 -570 -54 -177 -8
-199 -12 -199 -37 0 -36 141 -122 218 -132 21 -3 100 7 177 21 200 37 337 58
342 52 8 -8 -47 -216 -84 -316 -93 -252 -240 -453 -529 -725 -129 -121 -150
-155 -96 -155 63 0 222 71 328 145 81 58 244 231 324 344 126 177 213 386 264
629 13 63 26 115 28 117 3 3 359 48 486 61 l64 7 -6 -119 c-3 -65 -8 -245 -11
-399 -9 -420 -23 -670 -45 -797 -35 -197 -21 -369 39 -487 29 -56 56 -69 90
-44 41 31 66 75 94 165 54 171 57 257 32 933 -19 513 -19 761 -2 772 6 4 224
10 482 13 451 5 471 6 505 26 66 38 48 90 -52 154 -176 114 -364 123 -726 35
-101 -25 -189 -45 -196 -45 -14 0 -5 151 20 316 15 103 15 113 0 143 -17 31
-77 75 -166 121 l-45 24 220 32 c121 18 239 38 263 45 92 25 118 80 65 132
-71 67 -168 73 -403 22z m-273 -307 c75 -124 101 -232 110 -444 l6 -140 -128
-23 c-194 -34 -405 -64 -410 -59 -2 2 2 65 11 139 29 256 29 309 4 359 -12 25
-43 66 -68 92 -25 26 -44 49 -41 51 4 4 437 74 469 76 9 1 30 -23 47 -51z"/>
</g>
</svg>
